<svg xmlns="http://www.w3.org/2000/svg" viewBox="0 0 992.98 901.31"><g id="Layer_1" data-name="Layer 1"><path d="M1000,307.05c-5.2,6.09-10,12.52-15.65,18.21q-72.81,74-146,147.73c-5,5-6.89,10-6.88,17q.29,214.69.14,429.39c0,23.79-5.23,29-29.09,29H203.36c-22.47,0-28.05-5.58-28.06-28.08q0-215.17.15-430.36c0-7-2-12-6.93-17q-75.62-76-150.81-152.51c-14.53-14.72-14.3-24.49,1-38.19q95.48-85.38,191.14-170.55A72.1,72.1,0,0,1,232,98.51C276.14,82,320.5,66.16,364.8,50.13c19.78-7.16,29.41-1.39,32.54,19.05,4.68,30.52,14.83,58.51,39.71,78.6,57.34,46.3,144.5,18.6,165-52.34A189.33,189.33,0,0,0,607.87,68c2.42-18,13.15-24.91,30.87-18.62C676.14,62.63,713.2,77,750.93,89.2c24.22,7.86,44.44,20.42,63.24,37.58,57.08,52.13,115.25,103.05,172.89,154.56,4.72,4.22,8.65,9.34,12.94,14.05ZM174.18,419.31c0-24.77-.05-51.3,0-77.83A56.82,56.82,0,0,1,175.49,329c2.14-9.32,9.62-14.77,19.06-14.47a18.23,18.23,0,0,1,18,15.87,92.91,92.91,0,0,1,.65,13.56q0,275.46,0,550.91V907.5H792.37V894.24q0-275.94,0-551.88c0-4.2-.12-8.49.66-12.58a18.52,18.52,0,0,1,17.64-15.24c9.42-.44,17,4.84,19.38,14.16a47.21,47.21,0,0,1,1.11,11.53c.1,24.93,0,49.87.09,74.81A62.85,62.85,0,0,0,832,422l-1.65-2.73L952,302.11c-3-1.94-5.09-2.93-6.74-4.41q-87.71-78.81-175.42-157.62A33.72,33.72,0,0,0,759,134q-52.71-19.36-105.54-38.4c-2.94-1.06-6-1.83-9-2.75-18.64,66.55-60,109.23-129,114.35C434,213.29,384.37,169.55,360.8,92.7c-37.49,13.57-74.83,26.93-112,40.7a49.78,49.78,0,0,0-15.54,9.24Q147,219.49,61.14,296.7c-2.1,1.88-4.74,3.15-8.44,5.56Z" transform="translate(-7.02 -47.08)"/></g><g id="Layer_2" data-name="Layer 2"><path d="M294,622c1.14-9.11,2.37-18.21,3.4-27.34,2.58-22.69,4.85-45.42,7.65-68.08,1.83-14.73,14.59-25.1,29.45-24.68,14.43.4,26.91,12,27.83,26.65,1.59,25.49,2.81,51,4.05,76.52a7.14,7.14,0,0,0,3.07,6c24,18.48,47.74,37.17,71.75,55.59,14.8,11.37,22.2,26.09,22,44.75-.15,12.34,0,24.69-.05,37,0,6.88-3.05,9.91-9.87,9.92q-42,0-84,0c-6.59,0-9.67-3-9.75-9.61-.09-7.8.2-15.62-.15-23.41a14.11,14.11,0,0,0-2.67-7.62q-25.43-32.82-51.23-65.38c-4.85-6.14-9.66-12.24-11.43-20.11Zm152.08,119.1c0-10.45-.11-20.51,0-30.58.17-12.58-4.94-22.34-14.87-30-25.43-19.59-50.68-39.43-76.12-59a13.61,13.61,0,0,1-5.65-11.2c-.79-19.43-1.81-38.85-2.79-58.27-.38-7.51-.69-15-1.43-22.52a11.75,11.75,0,0,0-11.47-10.57A11.54,11.54,0,0,0,322,528.6c-.77,4-1.09,8.15-1.54,12.24-3,27.5-6,55-9.09,82.49-.58,5.1.31,9.37,3.55,13.47,19.38,24.51,38.58,49.15,57.95,73.67A15.53,15.53,0,0,1,376.57,721c-.17,6.62-.05,13.25-.05,20.08Z" transform="translate(-7.02 -47.08)"/><path d="M731,632.2a43.27,43.27,0,0,1-9.89,18.1c-3.75,4.21-8.54,5-12.41,1.91s-4.67-8.25-.87-12.4c5.38-5.89,6.38-12.23,5.44-20-3.58-29.58-6.52-59.23-9.79-88.85-.85-7.64-5.77-12.26-12.38-12.05-6.35.2-11.13,5-11.57,12.39-1.18,19.84-2.11,39.69-3.13,59.54-.34,6.66-.76,13.32-.9,20a12.59,12.59,0,0,1-5.39,10.47c-25.42,19.6-50.68,39.44-76.13,59-10.21,7.85-15.38,17.83-15.1,30.76.21,9.9,0,19.8,0,29.95h69.56c0-5.19.39-10.41-.1-15.55A21.88,21.88,0,0,1,654.87,707c1.89-1.9,3.3-4.28,5.09-6.29,3.25-3.67,8.26-4.2,11.84-1.4s4.25,7.69,1.53,11.83a1.25,1.25,0,0,1-.25.34c-7.69,6.52-8.26,15.17-7.59,24.34a131.84,131.84,0,0,1,0,13.63c-.18,5.78-3.35,8.89-9.16,8.89q-42.68.08-85.34,0c-5.8,0-9.07-3.17-9.1-8.93-.07-14.62-.43-29.26.19-43.86.65-15.1,7.44-27.56,19.36-36.91q36.9-28.92,74.06-57.52a7.16,7.16,0,0,0,3.11-6c1.22-25.37,2.44-50.76,4-76.12a28.9,28.9,0,0,1,27.84-27.12c15-.43,27.67,9.92,29.53,25.08,3.09,25.21,5.63,50.48,8.47,75.72.73,6.45,1.69,12.87,2.54,19.3Z" transform="translate(-7.02 -47.08)"/><path d="M512.45,335.64c68.73,0,127.17,51.8,134.75,119.7,3.87,34.73-4.59,66.41-24.83,94.91a9.3,9.3,0,0,0-1.78,7c1.23,11.89-2,22.69-10.38,31.29C594,605.23,577.37,621.59,560.83,638c-4.18,4.15-8.81,4-13.16-.32-9.61-9.48-19-19.13-28.76-28.51a10,10,0,0,0-6.19-2.59c-64.74-.75-118.39-44-132.78-107.15-14.31-62.8,21-129.73,81-153.64A138.35,138.35,0,0,1,512.45,335.64Zm42,195.06c9-7.2,18.77-10.21,29.76-9.3s19.89,6.06,27.66,14.41c2.45-4.41,4.52-8.42,6.86-12.26,1.46-2.4,1-3.94-1-5.78a54.77,54.77,0,0,0-25.07-13c-14.56-3.32-25.71-11.74-34.93-23-12.82-15.59-13.11-32.44-1.18-48.78,1.47-2,3-4,4.7-6.31-5.41,0-10.22.14-15,0-19.59-.65-34.24-9.44-43.23-26.91-7-13.56-5.2-26.33,4.61-38,2.62-3.1,5.39-6.06,7.82-8.78-17-3.06-54.77,7.63-68.28,19.75,1.49,1.13,3,2.2,4.41,3.34,10.67,8.45,20.39,17.75,26.23,30.32,6.23,13.41,3.58,24-8.08,33.1-2.8,2.18-5.73,4.2-8.52,6.4-7,5.56-7.27,9.8-.77,16.12,3.46,3.36,7.58,6.12,10.67,9.77,3.42,4,7,8.43,8.74,13.29,3.11,8.51-.55,16.16-5.75,22.92-8.66,11.25-20.32,18.56-33.39,23.45-8.12,3-16.7,4.84-26.06,7.47q11.1,12,22,23.76c16.25-11.16,32.92-17.89,51.6-18.88a6.22,6.22,0,0,0,5.67-3.36c8.08-12.69,19.71-19.21,34.87-19.26C538.44,521.24,546.81,524.72,554.48,530.7Zm72-27.83c.52-1.85.93-3.17,1.25-4.5,3.7-15.37,4.63-30.92,1.64-46.45-9.11-47.17-36.74-78.4-82.16-94a5.64,5.64,0,0,0-3.63-.3c-9,4-17.69,8.56-24,16.5-4,5.13-4.9,10.76-2.07,16.76,4.73,10,12.2,16.76,23.48,18.13,5.61.68,11.33.37,17,.52,3.41.09,6.85-.06,10.21.35,10.63,1.32,15.72,10.79,11,20.4a66.73,66.73,0,0,1-5.1,7.82c-2.17,3.16-4.64,6.13-6.57,9.42-3.59,6.13-3.65,12.58,0,18.61,5.77,9.44,13.46,17.14,24.19,20.49C604.06,490.41,616.23,494.1,626.53,502.87Zm-193.61-119a7,7,0,0,0-1.17.6c-36.3,32.25-48.17,89.1-28.07,133.59,1.28,2.84,3,3.29,5.57,3.16a76.1,76.1,0,0,0,43.39-15.68,46.42,46.42,0,0,0,7.84-7.76c4.72-5.85,4.48-8.31-.91-13.45-3.9-3.73-8.15-7.11-11.92-10.95-12.87-13.11-12-28.5,2.26-40.15,3.41-2.79,7-5.37,10.5-8s4.43-6.14,2.55-10.13a51.42,51.42,0,0,0-4.09-7.42C452,397.82,443,390.36,432.92,383.86ZM554.15,620.68c13.55-13.53,26.32-26.28,39.07-39a55.88,55.88,0,0,0,5.8-6.23c5.52-7.5,6.5-15.67,2.39-24.06s-11-12.73-20.41-13c-7.48-.23-13.37,2.93-18.42,8.28-5.82,6.15-10.41,6-16.32,0a43,43,0,0,0-3.39-3.23,22.28,22.28,0,0,0-20.46-4.36c-17.36,4.54-23.21,25.51-10.64,38.59,10,10.45,20.5,20.5,30.71,30.79C546.37,612.35,550.1,616.42,554.15,620.68Zm-55.74-32.26c-7.36-8.46-10.12-17.51-10.67-27.35-13,.84-24.25,5.25-35.3,11.85A116.8,116.8,0,0,0,498.41,588.42Z" transform="translate(-7.02 -47.08)"/><path d="M698.68,675.79a8.3,8.3,0,0,1-8.34,8.42,8.6,8.6,0,0,1-8.6-8.7,8.74,8.74,0,0,1,8.67-8.28A8.45,8.45,0,0,1,698.68,675.79Z" transform="translate(-7.02 -47.08)"/></g><g id="Layer_6" data-name="Layer 6"><path d="M568.24,346.88c1-.8,1.65-1.32,2.32-1.78,23.58-15.94,33.47-43.71,25.38-70.92a9.58,9.58,0,0,0-6.6-7,62.44,62.44,0,0,0-73.5,28.8,19.07,19.07,0,0,1-1.6,2.1c-15.47-17.72-34.38-23.17-56.7-17.63-3.6.89-6.12,2.94-7.06,6.54-5.32,20.39-1.68,38.56,13.55,53.77,1.47,1.47,3.06,2.81,4.86,4.45M506.35,325c-2.26-2.41-4.15-4.63-6.25-6.65-4.05-3.88-8.85-4.05-12.4-.58s-3.47,8.41.37,12.39c2.11,2.19,4.51,4.1,6.78,6.13-12.88.26-25.17-10.14-28.39-23.41-1.11-4.56-.93-9.47-1-14.22,0-1,1.21-2.73,2.07-2.87,18.15-2.94,36.39,8.28,39.38,27.6C506.91,323.59,506.72,323.85,506.35,325Zm30.7,12.5c4.86-4.69,9-8.53,12.91-12.49,4.33-4.33,4.7-9.44,1.1-13s-8.5-3.34-13,1.08c-3.93,3.83-7.84,7.7-11.77,11.55-.06.06-.25,0-.87,0a41.78,41.78,0,0,1,9.75-27.05c11.09-13.22,25.54-17.8,42.42-15.59,2.15.28,3.26,1.06,3.57,3.25C585.72,317.83,561.47,337.8,537.05,337.47Z" transform="translate(-7.02 -47.08)"/><path d="M-112.44,508.19" transform="translate(-7.02 -47.08)"/></g></svg>